# xmcd CD database file
#
# Track frame offsets:
#	150
#	21106
#	39182
#	62150
#	82293
#	93338
#	120757
#	139729
#	154243
#	171088
#
# Disc length: 2452 seconds
#
# Revision: 1
# Processed by: cddbd v1.5.2PL0 Copyright (c) Steve Scherf et al.
# Submitted via: CDex 1.51
#
DISCID=7809920a
DTITLE=New Orleans Dippers - Sweet Lorraine
DYEAR=2002
DGENRE=Jazz
TTITLE0=Blues for Louis Armtrong
TTITLE1=Lost in meditation
TTITLE2=I can't believe that you 're in love with me
TTITLE3=Sweet Lorraine
TTITLE4=Hard time stomp
TTITLE5=Solid old man
TTITLE6=Blues for friends
TTITLE7=Gettin' together
TTITLE8=Summertime
TTITLE9=Swing Baby Swing
EXTD=YEAR: 2002
EXTT0=
EXTT1=
EXTT2=
EXTT3=
EXTT4=
EXTT5=
EXTT6=
EXTT7=
EXTT8=
EXTT9=
PLAYORDER=
